<?xml version="1.0" encoding="UTF-8" standalone="no"?>
<!-- Created with Inkscape (http://www.inkscape.org/) -->

<svg
   version="1.1"
   id="svg1"
   width="1024"
   height="1024"
   viewBox="0 0 1024 1024"
   xmlns="http://www.w3.org/2000/svg"
   xmlns:svg="http://www.w3.org/2000/svg">
  <defs
     id="defs1" />
  <g
     id="g1">
    <path
       style="fill:#014421"
       d="m 306.63636,744.36364 c -5.70653,-5.70654 -2.58893,-13.09999 12.77482,-30.29576 C 333.39036,698.4218 333.4775,693.80293 320,682.85938 311.72904,676.14348 309.49392,671.45425 309.58074,661 c 0.0388,-4.675 0.43481,-12.39489 0.87997,-17.1553 0.7243,-7.74539 0.58809,-9.11205 -1.29562,-13 -1.15776,-2.38959 -5.93758,-8.38866 -10.62183,-13.33129 -14.14148,-14.9215 -17.66761,-24.52246 -14.15076,-38.52969 2.65686,-10.58199 7.87661,-19.99848 15.77185,-28.45262 12.2976,-13.16815 27.76164,-22.3229 50.09566,-29.65673 C 362.46995,516.86498 384.27885,512 390.04231,512 c 1.81006,0 3.07325,-0.21777 2.80709,-0.48393 -0.26616,-0.26617 -16.20366,-0.93425 -35.41667,-1.48464 -34.76288,-0.99584 -46.83317,-2.1556 -58.43273,-5.61444 -16.89524,-5.03796 -28.40942,-15.47438 -34.19883,-30.99772 -2.09625,-5.62076 -2.21064,-7.48263 -2.26829,-36.91927 l -0.0607,-31 -2.71246,-8 c -3.63505,-10.72099 -11.25845,-23.61707 -30.61387,-51.78773 -8.89857,-12.95134 -16.8467,-25.14543 -17.66253,-27.09796 -2.36409,-5.65808 -1.92243,-14.84034 0.98111,-20.39755 4.49383,-8.60094 9.05784,-12.34409 18.7164,-15.35017 7.57601,-2.35792 28.78123,-2.53879 43.18127,-0.36832 33.98368,5.12225 74.71841,24.44216 108.63791,51.52542 30.72358,24.53146 68.392,67.38208 91.09354,103.62565 8.02792,12.81677 21.63373,38.90959 25.86372,49.60066 2.12829,5.37912 4.32686,7.91077 3.47375,4 -0.20997,-0.9625 -1.34107,-7.6 -2.51357,-14.75 -2.474,-15.08665 -2.22135,-24.11493 0.83368,-29.79067 1.1222,-2.08487 1.87131,-4.55987 1.66469,-5.5 C 503.20919,440.2692 501.88465,433.875 500.47238,427 489.56468,373.90073 470.75419,329.88236 450.19618,309.34883 439.43229,298.59776 430.8181,295.96206 418.31959,299.59547 408.98554,302.30896 402.5322,299.3691 401.4126,291.8934 400.20768,283.84808 408.50901,278 421.13422,278 c 18.88466,0 34.37165,10.27604 49.20945,32.65182 17.04075,25.69786 31.56498,70.89546 38.27215,119.09818 1.47636,10.6102 1.95081,12.25 3.54436,12.25 1.0119,0 1.84459,-0.3375 1.85041,-0.75 0.0346,-2.44881 4.39733,-28.75818 6.59153,-39.75 5.0265,-25.18018 15.53743,-56.88492 25.3617,-76.5 8.94795,-17.86544 23.29935,-34.76149 34.53618,-40.65979 16.28832,-8.54987 33.52715,-8.47762 40.3286,0.16902 3.04043,3.86527 2.92925,9.82383 -0.24248,12.99556 -3.5144,3.5144 -7.06384,4.05263 -14.1949,2.15247 -8.67226,-2.31083 -14.9006,-2.10138 -20.89122,0.70254 -24.40759,11.42403 -51.62612,69.2812 -63.03585,133.99239 -1.64818,9.34779 -1.64838,10.03826 -0.004,13.48666 3.41922,7.17018 2.88825,15.19818 -3.05308,46.16115 -0.92639,4.82786 0.84885,2.83971 3.1252,-3.5 2.94564,-8.20373 14.78543,-32.53527 20.98316,-43.12178 8.98921,-15.35473 24.48371,-37.7885 36.25482,-52.49168 12.10614,-15.12166 36.49641,-40.56172 49.2297,-51.34861 48.67742,-41.23662 97.63847,-62.49449 144.23094,-62.62207 10.64103,-0.0291 14.57329,0.36958 19.85419,2.01316 11.09572,3.45333 17.74844,9.54486 20.53453,18.80233 2.97784,9.89461 0.94606,16.11735 -10.40406,31.86456 -13.62893,18.90883 -27.73584,40.45283 -33.11463,50.57248 -8.32201,15.65701 -8.64193,17.66298 -8.33818,52.28172 0.21977,25.04761 7e-4,30.85856 -1.33834,35.5 -5.16003,17.88603 -19.38127,29.54616 -41.55913,34.07475 -11.9006,2.43003 -31.66149,3.94031 -53.36532,4.0786 -9.35,0.0596 -21.05,0.39817 -26,0.75243 l -9,0.64411 9.37478,1.35021 c 11.30825,1.62868 28.47996,5.88203 40.32595,9.98855 C 717.24416,535.68021 741,561.49555 741,588.90899 c 0,10.55408 -2.56155,15.35352 -15.50332,29.04775 -12.24012,12.95177 -13.08268,14.84966 -11.96657,26.95484 2.22976,24.18369 0.83238,29.44487 -10.13943,38.17541 -12.79884,10.18435 -12.50538,15.58093 1.70947,31.4359 C 716.90813,727.69328 720,732.74716 720,738.87776 c 0,7.70154 -8.72856,10.70928 -16.24883,5.59912 -2.0422,-1.38771 -7.039,-6.91486 -11.104,-12.28254 C 683.98389,720.75476 675.30291,712.48285 669,709.66149 c -6.76707,-3.02914 -17.97645,-3.28281 -34.23371,-0.77471 -27.54771,4.24992 -39.90589,1.71289 -52.57726,-10.79371 -10.93901,-10.79677 -14.85537,-21.5678 -19.29356,-53.06248 -5.89919,-41.86231 -13.61466,-66.63488 -28.58862,-91.79144 L 528.50981,543.5 527.8056,557 c -1.82573,34.99999 -6.0817,69.76566 -9.30325,75.99546 -2.89527,5.59882 -8.31897,5.99142 -11.68373,0.84574 -3.69047,-5.64378 -7.01592,-25.48436 -9.33384,-55.68841 -0.87172,-11.35903 -1.89991,-24.02186 -2.28486,-28.13961 l -0.69992,-7.48682 -4.12966,6.98682 c -17.3526,29.35824 -22.47201,46.84838 -30.3774,103.78248 -2.45354,17.67019 -5.61519,28.27345 -10.81871,36.28275 -9.18133,14.132 -22.16392,21.38093 -38.34408,21.40972 -3.66842,0.007 -13.11842,-0.93421 -21,-2.09053 -17.34094,-2.54412 -29.07358,-2.27348 -36.00582,0.83056 -6.59832,2.95452 -12.84242,9.04539 -22.51388,21.96137 -4.60829,6.15424 -9.87896,12.11674 -11.71261,13.25 -4.71752,2.91559 -9.69097,2.69462 -12.96148,-0.57589 z"
       id="path1" />
  </g>
</svg>
